<svg xmlns="http://www.w3.org/2000/svg" width="18" height="18" viewBox="0 0 18 18" fill="none"><g clip-path="url(#clip0_67_92)"><path d="M11.763 0H6.237C1.194 0 0 1.194 0 6.237V11.763C0 16.806 1.194 18 6.237 18H11.763C16.806 18 18 16.806 18 11.763V6.237C18 1.194 16.7933 0 11.763 0ZM14.532 12.8422H13.224C12.729 12.8422 12.576 12.4485 11.6865 11.547C10.9117 10.797 10.569 10.6957 10.3785 10.6957C10.1115 10.6957 10.035 10.7723 10.035 11.1405V12.3218C10.035 12.6398 9.93375 12.8302 9.09525 12.8302C7.71075 12.8302 6.17325 11.9917 5.094 10.4288C3.468 8.14275 3.0225 6.4275 3.0225 6.072C3.0225 5.8815 3.099 5.70375 3.46725 5.70375H4.77525C5.10525 5.70375 5.23275 5.856 5.36025 6.2115C6.0075 8.079 7.0875 9.71775 7.53225 9.71775C7.69725 9.71775 7.77375 9.64125 7.77375 9.22275V7.29075C7.72275 6.40125 7.2525 6.3255 7.2525 6.00825C7.2525 5.85525 7.38 5.703 7.5825 5.703H9.6405C9.92025 5.703 10.0215 5.85525 10.0215 6.18525V8.79C10.0215 9.069 10.149 9.171 10.2248 9.171C10.3898 9.171 10.53 9.069 10.8345 8.7645C11.775 7.71 12.4478 6.084 12.4478 6.084C12.537 5.8935 12.6892 5.71575 13.02 5.71575H14.328C14.7218 5.71575 14.811 5.91825 14.7218 6.198C14.5568 6.96075 12.9562 9.22125 12.9562 9.22125C12.8167 9.45 12.7657 9.55125 12.9562 9.80625C13.0957 9.99675 13.5533 10.3905 13.8585 10.746C14.4173 11.3813 14.8485 11.9145 14.9633 12.2835C15.0907 12.651 14.8995 12.8415 14.5312 12.8415L14.532 12.8422Z" fill="#636363"></path></g><defs><clipPath id="clip0_67_92"><rect width="18" height="18" fill="white"></rect></clipPath></defs></svg>