<svg xmlns="http://www.w3.org/2000/svg" width="34" height="30" viewBox="0 0 34 30" fill="none"><g clip-path="url(#clip0_23_902)"><path d="M17 30C17.3595 30 17.8731 29.7712 18.2498 29.5588C27.8882 23.6765 34 16.8301 34 9.86928C34 4.08497 29.8399 0 24.4642 0C21.2443 0 18.7411 1.64172 17.1696 4.1774C17.0929 4.30123 16.9082 4.30062 16.8322 4.17637C15.289 1.65576 12.7546 0 9.53575 0C4.16012 0 0 4.08497 0 9.86928C0 16.8301 6.11178 23.6765 15.7674 29.5588C16.1269 29.7712 16.6405 30 17 30Z" fill="#E64249"></path></g><defs><clipPath id="clip0_23_902"><rect width="34" height="30" fill="white"></rect></clipPath></defs></svg>