<svg xmlns="http://www.w3.org/2000/svg" width="21" height="21" viewBox="0 0 21 21" fill="none"><path d="M13.7235 0H7.2765C1.393 0 0 1.393 0 7.2765V13.7235C0 19.607 1.393 21 7.2765 21H13.7235C19.607 21 21 19.607 21 13.7235V7.2765C21 1.393 19.5922 0 13.7235 0ZM16.954 14.9826H15.428C14.8505 14.9826 14.672 14.5232 13.6342 13.4715C12.7303 12.5965 12.3305 12.4783 12.1082 12.4783C11.7968 12.4783 11.7075 12.5677 11.7075 12.9972V14.3754C11.7075 14.7464 11.5894 14.9686 10.6111 14.9686C8.99587 14.9686 7.20212 13.9903 5.943 12.1669C4.046 9.49987 3.52625 7.49875 3.52625 7.084C3.52625 6.86175 3.6155 6.65438 4.04513 6.65438H5.57112C5.95612 6.65438 6.10487 6.832 6.25362 7.24675C7.00875 9.4255 8.26875 11.3374 8.78762 11.3374C8.98012 11.3374 9.06937 11.2481 9.06937 10.7599V8.50587C9.00987 7.46812 8.46125 7.37975 8.46125 7.00962C8.46125 6.83113 8.61 6.6535 8.84625 6.6535H11.2472C11.5736 6.6535 11.6917 6.83112 11.6917 7.21612V10.255C11.6917 10.5805 11.8405 10.6995 11.9289 10.6995C12.1214 10.6995 12.285 10.5805 12.6403 10.2252C13.7375 8.995 14.5224 7.098 14.5224 7.098C14.6265 6.87575 14.8041 6.66838 15.19 6.66838H16.716C17.1754 6.66838 17.2795 6.90462 17.1754 7.231C16.9829 8.12087 15.1156 10.7581 15.1156 10.7581C14.9528 11.025 14.8933 11.1431 15.1156 11.4406C15.2783 11.6629 15.8122 12.1222 16.1682 12.537C16.8202 13.2782 17.3232 13.9002 17.4572 14.3307C17.6058 14.7595 17.3827 14.9817 16.9531 14.9817L16.954 14.9826Z" fill="#333035"></path></svg>