<svg xmlns="http://www.w3.org/2000/svg" width="19" height="18" viewBox="0 0 19 18" fill="none"><g clip-path="url(#clip0_67_96)"><path d="M17.8403 4.65367C17.736 4.28 17.5371 3.93954 17.2627 3.66521C16.9884 3.39088 16.648 3.19196 16.2743 3.08767C14.8718 2.71192 9.22732 2.71192 9.22732 2.71192C9.22732 2.71192 3.59707 2.70442 2.18032 3.08767C1.80664 3.19196 1.46619 3.39088 1.19186 3.66521C0.917527 3.93954 0.718606 4.28 0.614318 4.65367C0.348458 6.08956 0.217389 7.54715 0.222818 9.00742C0.218415 10.4622 0.349481 11.9142 0.614318 13.3447C0.718606 13.7184 0.917527 14.0588 1.19186 14.3331C1.46619 14.6075 1.80664 14.8064 2.18032 14.9107C3.58132 15.2872 9.22732 15.2872 9.22732 15.2872C9.22732 15.2872 14.8568 15.2872 16.2743 14.9107C16.648 14.8064 16.9884 14.6075 17.2627 14.3331C17.5371 14.0588 17.736 13.7184 17.8403 13.3447C18.0996 11.9137 18.2251 10.4617 18.2153 9.00742C18.2262 7.54766 18.1006 6.09008 17.8403 4.65367ZM7.42582 11.7007V6.30592L12.1238 9.00742L7.42582 11.7007Z" fill="#636363"></path></g><defs><clipPath id="clip0_67_96"><rect width="18" height="18" fill="white" transform="translate(0.219727)"></rect></clipPath></defs></svg>