<svg xmlns="http://www.w3.org/2000/svg" width="20" height="14" viewBox="0 0 20 14" fill="none"><path d="M13.959 7.01349L20.0001 13.0547V0.972656L13.959 7.01349Z" fill="#1D191F" fill-opacity="0.9"></path><path d="M10.5802 9.19975L19.4281 0.351836C19.421 0.351515 19.4149 0.347656 19.4079 0.347656H0.617188L9.46863 9.1991C9.76349 9.49492 10.2854 9.4946 10.5802 9.19975Z" fill="#1D191F" fill-opacity="0.9"></path><path d="M11.1774 9.79531C10.8703 10.1017 10.4616 10.2712 10.0253 10.2712C9.58862 10.2712 9.17929 10.1024 8.87254 9.79531L6.61434 7.53711L0.515625 13.6358C0.541992 13.6394 0.565464 13.6513 0.592795 13.6513H19.4044L13.3632 7.6101L11.1774 9.79531Z" fill="#1D191F" fill-opacity="0.9"></path><path d="M0.00257235 0.926758C0.00257235 0.931581 0 0.935439 0 0.939941V12.9583L6.01704 6.94123L0.00257235 0.926758Z" fill="#1D191F" fill-opacity="0.9"></path></svg>