<svg xmlns="http://www.w3.org/2000/svg" width="50" height="34" viewBox="0 0 50 34" fill="none"><path d="M34.8975 16.6646L50.0004 31.7675V1.5625L34.8975 16.6646Z" fill="#1D191F" fill-opacity="0.9"></path><path d="M26.4505 22.1302L48.5703 0.0104502C48.5526 0.0096463 48.5373 0 48.5197 0H1.54297L23.6716 22.1286C24.4087 22.8682 25.7134 22.8674 26.4505 22.1302Z" fill="#1D191F" fill-opacity="0.9"></path><path d="M27.9434 23.6191C27.1757 24.3852 26.154 24.8088 25.0632 24.8088C23.9715 24.8088 22.9482 24.3868 22.1813 23.6191L16.5358 17.9736L1.28906 33.2204C1.35498 33.2293 1.41366 33.259 1.48199 33.259H48.5109L33.408 18.1561L27.9434 23.6191Z" fill="#1D191F" fill-opacity="0.9"></path><path d="M0.00643087 1.44727C0.00643087 1.45932 0 1.46897 0 1.48022V31.526L15.0426 16.4834L0.00643087 1.44727Z" fill="#1D191F" fill-opacity="0.9"></path></svg>