<svg xmlns="http://www.w3.org/2000/svg" width="50" height="50" viewBox="0 0 50 50" fill="none"><g clip-path="url(#clip0_11_840)"><path d="M17.7221 0.215836C17.1355 0.448562 16.4317 1.10627 16.1385 1.70326C15.3467 3.30199 16.0212 5.29534 17.595 6.05423C19.1199 6.803 20.9283 6.1453 21.6712 4.57693C21.9058 4.09124 21.9449 3.87875 21.9449 3.19069C21.9449 1.8348 21.3584 0.883659 20.1854 0.296784C19.4523 -0.0674834 18.5138 -0.0978394 17.7221 0.215836Z" fill="#1D191F" fill-opacity="0.9"></path><path d="M32.5512 3.05879C31.8181 3.35223 31.0849 4.13135 30.8112 4.89024C29.9999 7.11632 31.5053 9.41323 33.7633 9.41323C34.8581 9.41323 35.7574 8.93766 36.0214 8.21924C36.1094 7.98652 36.3635 7.55142 36.5786 7.25798C36.9598 6.74194 36.9598 6.7217 36.9305 5.97293C36.8816 4.71823 36.2267 3.68614 35.1416 3.13974C34.4476 2.78559 33.3039 2.75523 32.5512 3.05879Z" fill="#1D191F" fill-opacity="0.9"></path><path d="M25.2886 6.27609C24.1058 6.58976 23.0696 7.60162 22.7177 8.78549C22.053 11.0622 23.6757 13.4097 25.9533 13.4906C26.4909 13.5108 26.53 13.4906 26.7744 13.1567C27.2729 12.4788 27.9181 11.9324 28.661 11.558C29.3648 11.2139 29.4137 11.1633 29.5212 10.7586C29.834 9.61521 29.4528 8.15814 28.6121 7.27782C27.8106 6.43798 26.3541 6.00289 25.2886 6.27609Z" fill="#1D191F" fill-opacity="0.9"></path><path d="M39.9217 6.59061C38.26 6.81322 36.9794 8.22982 36.8719 9.98032C36.6959 12.854 39.5992 14.7664 42.1114 13.4206C42.6099 13.1575 43.3039 12.3683 43.5776 11.7612C43.8122 11.2553 43.8416 11.063 43.8416 10.1726C43.8416 9.26191 43.8122 9.11013 43.5679 8.6042C42.8445 7.15725 41.4369 6.38824 39.9217 6.59061Z" fill="#1D191F" fill-opacity="0.9"></path><path d="M15.9822 7.07582C15.4837 7.20736 15.1709 7.49068 14.9167 8.03708C14.5844 8.76562 13.4993 11.2042 13.3234 11.6292L13.1768 11.9833L13.5091 11.7202C14.3498 11.0625 15.3468 10.7084 16.4221 10.7084C17.3214 10.7084 17.8395 10.8399 18.6215 11.2649C19.5893 11.8012 20.2637 12.5904 20.8894 13.9463C20.8894 13.9665 21.1044 13.8148 21.3586 13.6225C21.6029 13.4201 21.8473 13.2582 21.8962 13.2582C21.9451 13.2582 22.0917 13.2178 22.2383 13.1571L22.4925 13.0559L22.2481 12.722C21.5443 11.7708 21.1826 10.2227 21.3977 9.05905C21.4563 8.69479 21.6225 8.13827 21.7496 7.83471L21.9842 7.27819L21.6518 7.12641C21.3879 7.01511 20.7818 6.98475 18.7975 6.99487C17.4094 7.00499 16.1386 7.03535 15.9822 7.07582Z" fill="#1D191F" fill-opacity="0.9"></path><path d="M7.70319 8.7555C5.08345 9.78759 4.80974 13.4505 7.24376 14.8266C7.98667 15.2415 9.08149 15.3022 9.92215 14.9683C10.6944 14.6647 11.4373 13.8957 11.7306 13.0862C12.014 12.3071 11.9749 11.2042 11.6426 10.4959C11.3591 9.87866 10.7237 9.23108 10.1079 8.9174C9.51159 8.60373 8.27015 8.52278 7.70319 8.7555Z" fill="#1D191F" fill-opacity="0.9"></path><path d="M30.8897 10.3142C30.8409 10.4255 30.792 10.6279 30.792 10.7594C30.792 10.982 30.8506 11.0124 31.486 11.1237C32.923 11.3969 34.2622 12.4087 34.9073 13.7241L35.2201 14.3818L35.5329 14.0682C35.6991 13.8961 36.051 13.6735 36.3052 13.5724L36.7646 13.4003L36.5593 13.1271C36.1879 12.6414 35.7675 11.5588 35.66 10.8302L35.5623 10.1219H33.2749C31.1243 10.1219 30.9875 10.1321 30.8897 10.3142Z" fill="#1D191F" fill-opacity="0.9"></path><path d="M15.6794 12.044C13.48 12.4994 12.2581 15.0796 13.2259 17.2146C14.4478 19.9466 18.2698 19.9567 19.5699 17.2247C19.8632 16.6176 19.8925 16.4658 19.8925 15.6361C19.8925 14.8671 19.8534 14.6445 19.6384 14.1588C18.9052 12.5398 17.3314 11.7101 15.6794 12.044Z" fill="#1D191F" fill-opacity="0.9"></path><path d="M29.3939 12.5904C28.3577 13.0356 27.7614 13.6832 27.3606 14.7659C27.0771 15.5653 27.126 16.7188 27.4877 17.5283C28.0156 18.7121 29.1495 19.5115 30.4007 19.6127C31.2707 19.6734 31.9452 19.4913 32.6392 19.0157C34.4769 17.7408 34.7409 15.0695 33.1964 13.4303C32.5317 12.722 31.8279 12.4083 30.7917 12.3678C30.0879 12.3476 29.8728 12.3779 29.3939 12.5904Z" fill="#1D191F" fill-opacity="0.9"></path><path d="M22.434 14.4118C22.2776 14.4826 22.043 14.6546 21.9257 14.7963C21.6911 15.0594 21.0166 16.567 21.0166 16.8402C21.0166 17.073 20.5571 18.1152 20.2834 18.4795L20.0391 18.8134L20.5571 19.0562C21.5249 19.5217 21.7986 19.9365 23.1182 23.0024C23.3822 23.5994 23.607 24.0649 23.6363 24.0345C23.6559 24.0143 24.0176 23.225 24.4379 22.2739C24.8582 21.3329 25.2883 20.4222 25.4056 20.2603C25.6402 19.9163 26.4125 19.3901 26.8132 19.2889L27.0772 19.2282L26.7448 18.7223C25.9237 17.4878 25.6793 15.7171 26.1485 14.4422C26.217 14.2803 26.0997 14.2701 24.477 14.2701C23.2355 14.2803 22.6393 14.3207 22.434 14.4118Z" fill="#1D191F" fill-opacity="0.9"></path><path d="M36.9596 14.6951C36.7836 14.7457 36.5295 14.857 36.4122 14.938C36.1092 15.1403 35.552 16.2736 35.288 17.2045C35.1707 17.6194 34.9068 18.2467 34.7015 18.5907L34.3301 19.208L34.7504 19.38C35.3467 19.6127 35.9821 20.2299 36.2851 20.8573C36.8716 22.1019 41.29 32.1698 41.4268 32.5644C41.6223 33.1716 41.5441 34.2644 41.2607 34.7602C41.0652 35.1143 41.0554 35.2256 41.0554 38.9189C41.0554 42.9157 41.0749 43.1383 41.5246 43.6442C42.0134 44.2008 43.0495 44.393 43.6947 44.0287C43.8804 43.9276 44.1639 43.6746 44.3301 43.4722L44.6233 43.0877L44.6722 32.9591L44.7211 22.8405L45.4933 24.6012C47.2235 28.5373 47.3506 28.77 47.8002 29.0331C48.7973 29.6098 50.0094 28.8813 49.9997 27.6974C49.9899 27.232 49.7064 26.5237 47.3799 21.2519C44.5647 14.8772 44.5842 14.9076 43.7436 14.685C43.2059 14.5433 37.4288 14.5534 36.9596 14.6951Z" fill="#1D191F" fill-opacity="0.9"></path><path d="M5.47409 16.0008C5.33724 16.0615 5.13196 16.1931 5.01466 16.3145C4.75073 16.5776 0 27.3234 0 27.6776C0 28.9323 1.51515 29.6001 2.33626 28.6996C2.45357 28.568 3.04985 27.3437 3.65591 25.9676C4.27174 24.5914 4.7996 23.4379 4.82893 23.4076C4.85825 23.3671 4.88758 27.4449 4.88758 32.4535V41.5602L5.11241 41.8941C5.43499 42.3899 5.79667 42.6227 6.32453 42.6733C6.91104 42.734 7.49755 42.4608 7.83968 41.9751C8.06451 41.6513 8.06451 41.5906 8.09383 38.808L8.12316 35.9748L7.60507 35.8433C6.23655 35.5093 5.26881 33.9916 5.56207 32.6053C5.61094 32.3422 6.84261 29.4483 8.28934 26.1598C11.1144 19.7447 11.2317 19.5322 12.1212 19.1072C12.3949 18.9757 12.61 18.8239 12.61 18.753C12.61 18.6923 12.4731 18.3989 12.2972 18.1156C12.131 17.8323 11.8964 17.2251 11.7791 16.7698L11.5836 15.9401L8.65102 15.9199C6.87194 15.9097 5.62072 15.9401 5.47409 16.0008Z" fill="#1D191F" fill-opacity="0.9"></path><path d="M12.8546 20.1493C12.4538 20.2606 12.1703 20.554 11.8869 21.1308C11.7598 21.3939 10.5477 24.1158 9.19868 27.1817C7.62488 30.7535 6.74512 32.8683 6.74512 33.0808C6.74512 33.8093 7.19477 34.3962 7.92791 34.6188C8.24072 34.72 8.37757 34.7099 8.72947 34.5682C8.96408 34.4771 9.24756 34.295 9.36486 34.1736C9.47239 34.0522 10.098 32.7165 10.7627 31.219C11.4176 29.7113 11.9944 28.4465 12.0433 28.3858C12.0824 28.3352 12.1215 32.7873 12.1215 38.2817C12.1215 48.1068 12.1215 48.2788 12.317 48.6735C12.4245 48.8961 12.6982 49.1996 12.923 49.3514C13.2554 49.5841 13.4313 49.6347 13.9396 49.6347C14.4773 49.6347 14.6043 49.5942 14.9269 49.321C15.1322 49.1591 15.3961 48.8151 15.5232 48.5723L15.7383 48.1271V42.3291V36.5312H16.4225H17.1068V42.4C17.1068 47.9652 17.1166 48.2991 17.2925 48.6532C18.0061 50.1002 19.9514 49.9787 20.577 48.4508C20.704 48.1271 20.7236 47.2366 20.7236 41.8131C20.7236 35.5699 20.7236 35.5497 20.5183 35.3575C20.01 34.8819 19.707 33.7587 19.8536 32.929C19.9025 32.676 20.1175 32.0791 20.3326 31.6035C20.7236 30.7434 20.7236 30.7232 20.7334 29.5089L20.7431 28.2846L21.0071 28.8816L21.271 29.4786L22.1019 27.5662L22.9426 25.6639L21.8966 23.3164C21.3297 22.0313 20.7822 20.8475 20.6845 20.6957C20.5867 20.554 20.3326 20.3415 20.1078 20.2302C19.7265 20.0582 19.4333 20.038 16.4225 20.0481C14.6239 20.0481 13.011 20.0987 12.8546 20.1493Z" fill="#1D191F" fill-opacity="0.9"></path><path d="M27.2924 20.4525C27.0383 20.5133 26.7548 20.6853 26.5691 20.8775C26.354 21.1102 25.4938 22.9417 23.6756 27.0701C21.3687 32.271 21.0754 32.9995 21.0754 33.465C21.0559 34.6489 22.2191 35.3571 23.2748 34.8006C23.7147 34.578 23.8223 34.3554 25.6209 30.2675L26.3443 28.6182L26.3931 38.7367L26.442 48.8553L26.745 49.2499C27.1849 49.8165 27.5955 50.0088 28.3091 49.9683C29.0324 49.9177 29.5407 49.5838 29.8242 48.9362C29.9904 48.5517 30.0099 48.1672 30.0099 42.7234V36.9356H30.6942H31.3785V42.7538C31.3785 49.0779 31.3687 48.9565 31.9259 49.5029C32.7861 50.3326 34.223 50.0897 34.79 49.0273C34.9268 48.7541 34.9464 47.7625 34.9953 38.6963L35.0441 28.6587L36.266 31.4514C37.5661 34.4262 37.8301 34.8411 38.4655 34.9726C39.5309 35.175 40.5378 34.2239 40.313 33.2221C40.1859 32.6251 35.0637 21.1507 34.8095 20.8876C34.6727 20.7359 34.4479 20.574 34.311 20.5133C33.9884 20.3615 27.8692 20.321 27.2924 20.4525Z" fill="#1D191F" fill-opacity="0.9"></path><path d="M10.547 34.6586C10.4102 34.8913 10.0876 35.2151 9.84322 35.377L9.38379 35.6705L9.41311 38.6554C9.43266 41.6303 9.43266 41.6404 9.66727 41.9844C9.88232 42.288 10.7034 42.7838 10.811 42.6725C10.8305 42.6523 10.8403 40.7399 10.8305 38.4328L10.8012 34.2336L10.547 34.6586Z" fill="#1D191F" fill-opacity="0.9"></path><path d="M36.2659 38.8987C36.2659 43.7555 36.2268 43.5026 37.0186 43.9883C37.8788 44.5043 39.0128 44.1502 39.5015 43.2091C39.6677 42.8854 39.6872 42.5818 39.6872 39.5058V36.1565L39.2376 36.2274C38.1916 36.3893 37.1164 35.8934 36.5201 34.9727L36.2659 34.578V38.8987Z" fill="#1D191F" fill-opacity="0.9"></path><path d="M23.4604 36.0955C23.2747 36.1765 22.8641 36.2574 22.5611 36.2574L21.9941 36.2777V39.5864V42.8851L22.2483 43.2089C22.913 44.0183 24.0078 44.0993 24.7801 43.4011L25.1222 43.0874V39.5055V35.9235L24.4673 35.9336C24.0958 35.9336 23.6461 36.0045 23.4604 36.0955Z" fill="#1D191F" fill-opacity="0.9"></path></g><defs><clipPath id="clip0_11_840"><rect width="50" height="50" fill="white"></rect></clipPath></defs></svg>