<svg xmlns="http://www.w3.org/2000/svg" width="15" height="18" viewBox="0 0 15 18" fill="none"><g clip-path="url(#clip0_67_98)"><path d="M7.48382 14.5576C8.37629 14.3546 9.22889 14.0018 10.0038 13.5146C10.5876 13.124 10.7444 12.3344 10.3538 11.7506C9.97859 11.1892 9.23099 11.0198 8.64929 11.3635C6.86432 12.48 4.59632 12.48 2.81132 11.3635C2.21842 10.9897 1.43582 11.1675 1.06132 11.759C1.06132 11.7604 1.06132 11.7618 1.05992 11.7625C0.686116 12.3554 0.863916 13.1387 1.45682 13.5125L1.45822 13.5139C2.23172 14.0004 3.08362 14.3539 3.97542 14.5555L1.54992 16.981C1.05502 17.4675 1.04592 18.262 1.53032 18.7569L1.55132 18.7779C1.79212 19.0257 2.11832 19.1489 2.44312 19.1489C2.76862 19.1489 3.09412 19.0257 3.33562 18.7779L5.73032 16.3951L8.11309 18.7793C8.61709 19.2658 9.42209 19.2525 9.90929 18.7478C10.3839 18.2557 10.3839 17.4752 9.90929 16.9838L7.48382 14.5576ZM5.73032 11.0212C8.12429 11.0184 10.0633 9.07941 10.0668 6.68611C10.0668 4.29561 8.12079 2.34961 5.73032 2.34961C3.33982 2.34961 1.39382 4.29561 1.39382 6.68751C1.39732 9.08151 3.33702 11.0205 5.73032 11.0219V11.0212ZM5.73032 4.89131C6.72152 4.89271 7.52442 5.69631 7.52512 6.68681C7.52512 7.67801 6.72152 8.48091 5.73032 8.48231C4.73982 8.48091 3.93692 7.67871 3.93482 6.68751C3.93622 5.69561 4.73982 4.89341 5.73032 4.89131Z" fill="#636363"></path></g><defs><clipPath id="clip0_67_98"><rect width="14" height="18" fill="white" transform="translate(0.830078)"></rect></clipPath></defs></svg>