<svg xmlns="http://www.w3.org/2000/svg" width="50" height="51" viewBox="0 0 50 51" fill="none"><g clip-path="url(#clip0_10_49)"><path d="M16.904 0.226501C14.5075 0.581009 12.29 1.43183 10.2912 2.76884C9.23717 3.46773 8.8593 3.78172 7.81518 4.82499C5.1104 7.53951 3.50942 10.9023 3.08182 14.8221C3.0321 15.3185 2.98238 17.881 2.98238 20.5044V25.2852L2.32608 25.7714C-0.478134 27.8681 -0.776454 32.0817 1.69961 34.6139C2.32608 35.2621 3.20115 35.7989 4.01656 36.0623C4.40438 36.1838 4.74247 36.2952 4.76236 36.3155C4.78225 36.3256 4.66292 36.508 4.50382 36.7207C4.02651 37.3486 3.80774 37.7639 3.50942 38.6249L3.23098 39.4352V44.4793V49.5336L3.55914 49.8274L3.87735 50.1211H19.032H34.1768L34.5447 49.8679C34.9027 49.6147 34.9226 49.6147 35.4794 49.7565C36.5335 50.0299 37.7964 50.1515 39.0294 50.0907C40.8492 49.9894 42.1618 49.6552 43.8225 48.855C46.3085 47.6598 48.4961 45.4416 49.6795 42.8992C49.9579 42.2915 50.0275 42.0484 49.9778 41.7851C49.8883 41.2989 49.5005 40.9545 49.0232 40.9545C48.526 40.9545 48.2973 41.1773 47.8597 42.0585C45.7218 46.3734 41.2569 48.7334 36.7324 47.9434C34.5347 47.5585 32.8443 46.6773 31.2035 45.0769C29.7517 43.6488 28.7772 41.9775 28.27 40.0125C28.0612 39.1921 28.0115 38.7869 28.0015 37.5614C27.9916 35.9306 28.1109 35.1507 28.5584 33.8137C30.2986 28.7088 35.5888 25.7208 40.7398 26.9261C42.7386 27.4021 44.2799 28.2732 45.7516 29.752C46.7559 30.7649 47.4421 31.7474 47.9393 32.8616C48.2674 33.5909 48.5856 33.8542 49.1027 33.8441C49.5602 33.8339 50.0176 33.3579 50.0176 32.9021C50.0176 32.0817 48.5658 29.7115 47.2333 28.3542C45.4533 26.5412 43.2258 25.346 40.6901 24.8294C39.5664 24.6066 37.2594 24.6066 36.1457 24.8395C35.7081 24.9307 35.3004 25.0016 35.2308 25.0016C35.1413 25.0016 35.1016 23.6747 35.0717 19.5523L35.0419 14.1131L34.7635 12.9483C34.0077 9.73747 32.5857 7.14449 30.3781 4.89589C29.0456 3.54876 27.7927 2.61691 26.2017 1.81673C24.8393 1.12797 23.5566 0.682301 22.1246 0.388561C20.8021 0.115086 18.2067 0.0340538 16.904 0.226501ZM22.0749 2.45484C24.8294 3.10309 27.0469 4.34893 28.976 6.32405C30.9151 8.28905 32.2078 10.6997 32.8741 13.5662C33.0233 14.2245 33.0531 15.0247 33.0829 20.0891L33.1227 25.8626L32.4465 26.2171C30.9847 26.9869 29.0854 28.7391 28.1209 30.218C27.4844 31.1903 26.8779 32.4666 26.5696 33.4693L26.3011 34.3201H24.2327H22.1644L22.1942 33.0439L22.2241 31.7677L22.9301 31.4942C25.3266 30.5421 27.3253 28.5973 28.4987 26.0753C29.2942 24.3432 29.5826 22.4491 29.513 19.2586C29.4832 17.6278 29.4832 17.6177 29.2048 17.324C29.0456 17.1619 28.6877 16.9593 28.3595 16.858C26.1221 16.1389 23.5267 14.1435 21.1203 11.2872C19.6088 9.49438 17.2719 8.57265 15.0445 8.88665C12.29 9.28167 10.3111 11.0036 9.28689 13.9105C8.71014 15.5514 8.62064 16.4326 8.67036 20.1195C8.71014 22.986 8.73997 23.4114 8.92891 24.1103C9.57527 26.5209 10.7984 28.4758 12.5485 29.904C13.2943 30.5117 14.8158 31.3929 15.5914 31.6664L15.9096 31.7778V33.054V34.3303L10.3608 34.2999L4.82203 34.2695L4.16572 33.9454C3.3702 33.5503 2.67412 32.8211 2.30619 32.0108C2.07748 31.5144 2.0377 31.3017 2.0377 30.4712C2.0377 29.6406 2.07748 29.4279 2.30619 28.9316C2.65423 28.1719 3.34037 27.4325 4.06628 27.0375C4.38449 26.8653 4.71264 26.6526 4.78225 26.5614C4.89163 26.4196 4.93141 25.2953 4.98113 20.5044C5.03085 14.9538 5.05074 14.5588 5.24962 13.6371C5.67721 11.7126 6.39318 10.0109 7.44725 8.39034C8.14333 7.31668 9.93325 5.4631 10.9873 4.7237C12.5784 3.58927 14.6567 2.69794 16.4267 2.37381C17.6995 2.14085 17.8487 2.13072 19.4894 2.16111C20.6728 2.19149 21.2694 2.26239 22.0749 2.45484ZM16.9338 10.9732C18.1967 11.2467 18.8928 11.743 20.275 13.3535C22.1246 15.521 24.551 17.405 26.7088 18.3672L27.4944 18.7217L27.4745 20.7374C27.4645 22.4188 27.4248 22.8948 27.2458 23.6443C26.5398 26.6121 24.3024 29.0126 21.4783 29.8634C21.0705 29.985 20.6231 30.1977 20.4839 30.3294C20.2352 30.5725 20.2353 30.6028 20.2054 32.4463L20.1756 34.3201H19.032H17.8984V32.4969C17.8984 30.2787 17.8984 30.2686 16.8642 29.9445C13.881 29.0228 11.8823 27.0071 10.9674 24.0191L10.6989 23.1278L10.689 19.6333C10.689 16.2807 10.6989 16.1085 10.9177 15.3286C11.4646 13.4041 12.3496 12.1279 13.6125 11.4391C14.6666 10.8719 15.7505 10.72 16.9338 10.9732ZM15.3527 42.0889C16.546 45.2593 17.5504 47.9029 17.5703 47.9738C17.61 48.0649 16.3372 48.0953 11.395 48.0953H5.17007V44.2059C5.17007 42.0079 5.20984 40.0834 5.26951 39.7796C5.47833 38.635 6.20425 37.5715 7.16881 36.984C8.06378 36.4371 8.55103 36.356 10.9873 36.356L13.1849 36.3459L15.3527 42.0889ZM22.1743 36.4168C22.1743 36.5789 19.0619 45.9683 19.0022 45.9683C18.9525 45.9683 17.1228 41.2077 15.492 36.8219L15.313 36.3459H18.7436C20.633 36.3459 22.1743 36.3763 22.1743 36.4168ZM25.9531 37.1866C25.9531 41.2888 27.8126 45.1478 30.9648 47.5686L31.651 48.0953H26.0624C22.9997 48.0953 20.4839 48.0852 20.4839 48.0649C20.4839 48.0143 24.1333 36.9334 24.2526 36.6194C24.3521 36.356 24.372 36.3459 25.1575 36.3459H25.9531V37.1866Z" fill="#1D191F" fill-opacity="0.9"></path><path d="M14.8143 19.5649C14.1893 19.9262 14.199 21.6547 14.8338 21.9965C15.2147 22.1919 15.7225 22.1137 16.0252 21.811C16.2889 21.5473 16.3084 21.4692 16.3084 20.7758C16.3084 20.0825 16.2889 20.0044 16.0252 19.7407C15.8006 19.5258 15.6444 19.4575 15.3611 19.4575C15.1561 19.4575 14.9119 19.5063 14.8143 19.5649Z" fill="#1D191F" fill-opacity="0.9"></path><path d="M21.5918 19.7114C21.2988 19.9555 21.2891 19.9848 21.2891 20.7661C21.2891 21.518 21.3086 21.5864 21.5625 21.8305C21.9434 22.1918 22.5293 22.2016 22.8809 21.8403C23.1738 21.5473 23.3008 20.9516 23.1934 20.3461C23.0566 19.5356 22.1973 19.1938 21.5918 19.7114Z" fill="#1D191F" fill-opacity="0.9"></path><path d="M16.5918 25.3066C16.377 25.5312 16.3086 25.6875 16.3086 25.9805C16.3086 26.4785 16.5918 26.8301 17.3047 27.2207C17.7734 27.4844 17.9102 27.5137 18.7012 27.5137C19.4629 27.5137 19.6484 27.4746 20.0684 27.25C20.8008 26.8691 21.1426 26.4688 21.1426 25.9902C21.1426 25.6582 21.084 25.541 20.8105 25.2969C20.5273 25.043 20.4199 25.0137 20.1074 25.0527C19.8926 25.082 19.5898 25.2188 19.4238 25.3555C19.0039 25.707 18.5156 25.6973 17.959 25.3164C17.3926 24.9355 16.9727 24.9258 16.5918 25.3066Z" fill="#1D191F" fill-opacity="0.9"></path><path d="M36.6501 33.3242C36.3474 33.4512 36.0935 33.8809 36.0935 34.2813C36.0935 34.5547 36.1618 34.6914 36.4548 34.9355L36.8161 35.248V37.3184C36.8161 39.6719 36.8552 39.5938 35.9861 39.0957C35.3513 38.7344 34.8142 38.1289 34.5017 37.4551C34.2966 37.0156 34.238 36.6934 34.1892 35.7656C34.1306 34.7305 34.0915 34.5742 33.8474 34.2031C33.5056 33.6855 32.6853 33.2754 32.1579 33.3535C31.1423 33.5195 30.947 34.8574 31.8845 35.1895C32.2263 35.3164 32.2263 35.3164 32.2263 35.9121C32.2361 37.3379 32.7634 38.7148 33.7009 39.7207C34.4138 40.4824 35.0486 40.9023 36.0251 41.2441L36.7673 41.5078L36.7966 42.6504L36.8259 43.793L36.4548 44.1152C36.1423 44.3887 36.0837 44.4863 36.0837 44.8477C36.0837 45.1895 36.1423 45.3066 36.406 45.541C36.7087 45.8145 36.7576 45.8242 37.7439 45.8242C38.7302 45.8242 38.779 45.8145 39.0818 45.541C39.3454 45.3066 39.404 45.1895 39.404 44.8477C39.404 44.5059 39.3454 44.3887 39.0818 44.1543L38.7693 43.8711V42.6699V41.4688L39.3454 41.293C40.6736 40.8926 42.0798 39.7012 42.6755 38.4609C43.0368 37.6992 43.2615 36.7324 43.2615 35.9121C43.2615 35.3164 43.2615 35.3164 43.6033 35.1895C44.238 34.9648 44.4236 34.2227 43.9743 33.7148C43.574 33.2754 43.115 33.2266 42.4314 33.5684C41.572 33.9883 41.3962 34.3301 41.3083 35.7559C41.2204 37.0938 41.0056 37.6992 40.3708 38.4023C40.0095 38.8027 39.1404 39.3789 38.8962 39.3789C38.7986 39.3789 38.7693 38.8906 38.7693 37.2793V35.1797L39.0622 34.9063C39.4529 34.5547 39.5212 34.1543 39.2575 33.7344C39.1501 33.5586 38.945 33.373 38.8083 33.3242C38.5056 33.207 36.9431 33.207 36.6501 33.3242Z" fill="#1D191F" fill-opacity="0.9"></path><path d="M48.6719 36.9277C48.3789 37.0547 48.0469 37.5039 48.0469 37.7871C48.0469 38.3145 48.5156 38.793 49.0234 38.793C49.541 38.793 50 38.3145 50 37.7773C50 37.2305 49.1895 36.7129 48.6719 36.9277Z" fill="#1D191F" fill-opacity="0.9"></path></g><defs><clipPath id="clip0_10_49"><rect width="50" height="51" fill="white"></rect></clipPath></defs></svg>