<svg xmlns="http://www.w3.org/2000/svg" width="19" height="18" viewBox="0 0 19 18" fill="none"><g clip-path="url(#clip0_67_94)"><path d="M18.6104 9C18.6104 11.3869 17.6621 13.6761 15.9743 15.364C14.2865 17.0518 11.9973 18 9.61035 18C7.2234 18 4.93422 17.0518 3.24639 15.364C1.55856 13.6761 0.610352 11.3869 0.610352 9C0.610352 6.61305 1.55856 4.32387 3.24639 2.63604C4.93422 0.948212 7.2234 0 9.61035 0C11.9973 0 14.2865 0.948212 15.9743 2.63604C17.6621 4.32387 18.6104 6.61305 18.6104 9ZM9.93323 6.64425C9.05798 7.00875 7.30748 7.7625 4.68398 8.9055C4.25873 9.07425 4.03485 9.24075 4.0146 9.40275C3.98085 9.67612 4.32398 9.78413 4.79085 9.9315L4.98773 9.99338C5.44673 10.143 6.06548 10.3174 6.3861 10.3241C6.6786 10.3309 7.00373 10.2116 7.3626 9.96413C9.81398 8.30925 11.0796 7.47337 11.1584 7.45537C11.2146 7.44187 11.2934 7.42613 11.3451 7.47338C11.398 7.5195 11.3924 7.60838 11.3867 7.632C11.353 7.77712 10.0064 9.02812 9.30998 9.67612C9.09285 9.87862 8.93873 10.0215 8.90723 10.0541C8.83786 10.125 8.76735 10.1948 8.69573 10.2634C8.26823 10.6751 7.94873 10.9834 8.7126 11.4874C9.08048 11.7304 9.37523 11.9295 9.66885 12.1297C9.98835 12.348 10.3079 12.5651 10.7219 12.8374C10.8265 12.9049 10.9277 12.978 11.0256 13.0477C11.398 13.3132 11.7344 13.5518 12.1472 13.5135C12.388 13.491 12.6366 13.266 12.7626 12.591C13.0607 10.9969 13.6469 7.54425 13.7819 6.12113C13.7901 6.00282 13.7852 5.88397 13.7672 5.76675C13.7566 5.67216 13.7109 5.58502 13.639 5.52262C13.5366 5.45196 13.4146 5.41535 13.2902 5.418C12.9527 5.42362 12.4319 5.60475 9.93323 6.64425Z" fill="#636363"></path></g><defs><clipPath id="clip0_67_94"><rect width="18" height="18" fill="white" transform="translate(0.610352)"></rect></clipPath></defs></svg>